<?xml version="1.0" encoding="utf-8"?>
<!-- Generator: Adobe Illustrator 24.3.0, SVG Export Plug-In . SVG Version: 6.00 Build 0)  -->
<svg version="1.1" id="Capa_1" xmlns="http://www.w3.org/2000/svg" xmlns:xlink="http://www.w3.org/1999/xlink" x="0px" y="0px"
	 viewBox="0 0 1340.5 342.7" style="enable-background:new 0 0 1340.5 342.7;" xml:space="preserve">
<style type="text/css">
	.st0{fill:#A49784;}
	.st1{fill:#F3F3F3;}
	.st2{fill:#998351;}
	.st3{fill:#F0F0F0;}
	.st4{fill:#DCC784;}
	.st5{fill:#AD9861;}
	.st6{fill:#FF1F03;}
	.st7{fill:#FDFDFD;}
	.st8{fill:#50ADE3;}
	.st9{fill:#FEB412;}
</style>
<g>
	<g>
		<g>
			<path class="st6" d="M17.2,309.2c7-6.6,14.1-13,21-19.8c65.6-65,130.9-130.3,196.7-195.1c25.7-25.3,53.6-47.9,88.1-60.5
				c26.5-9.7,54.1-14.6,82.1-14.7c148.5-1,297.1-1.3,445.6-1.8c41.6-0.1,83.1,0,124.7,0c2.7,0,5.4,0,9.1,0
				c-8.9,9.1-16.7,17.4-24.8,25.4c-26.5,26.1-53.2,52-79.5,78.3c-4.6,4.6-9.3,6.1-15.6,6.1c-131.4-0.1-262.7-0.3-394.1,0.3
				c-25.3,0.1-50.8,2.2-75.8,5.9c-27.3,4-49.3,19.7-68.8,38.5c-45.3,43.6-90.4,87.3-135.3,131.3c-5.9,5.8-11.6,8.6-20.1,8.5
				c-48.2-0.4-96.5-0.2-144.7-0.2c-2.5,0-4.9-0.2-7.4-0.4C18,310.4,17.6,309.8,17.2,309.2z"/>
			<path class="st6" d="M855.4,147.6c-17.6,17.2-35.2,34.3-52.7,51.6c-14.6,14.4-29.1,28.9-43.5,43.6c-3.7,3.8-7.5,5.3-12.8,5.3
				c-89-0.1-178-0.1-267,0c-9,0-17.9,0.7-26.9,1.2c-15.9,0.9-30,6.6-41.5,17.7c-13.5,13-26.5,26.5-40,39.4c-2.5,2.4-6.4,4.8-9.7,4.8
				c-47.5,0.3-94.9,0.2-142.4,0.2c-1.5,0-2.9-0.2-7-0.6c16.5-16.1,31.6-30.5,46.5-45.3c27.7-27.4,55.4-54.8,82.9-82.5
				c23.9-24.1,53.5-34.5,86.6-36c21.5-1,43.1-1.5,64.6-1.5c118-0.2,236-0.1,354-0.1c2.5,0,5,0,7.5,0
				C854.5,146.1,855,146.8,855.4,147.6z"/>
			<path class="st6" d="M1192.5,19.5c-11.9,11.5-24.1,22.8-35.8,34.5c-83.9,83.6-167.7,167.3-251.4,251.2c-4.5,4.5-9,6.4-15.4,6.3
				c-54.6-0.2-109.2-0.1-163.9-0.1c-2.7,0-5.5,0-8.2,0c-0.5-0.7-0.9-1.4-1.4-2.1c12.3-11.8,24.8-23.5,36.8-35.5
				c83.9-83.9,167.7-168,251.7-251.9c2.1-2.1,5.4-4.4,8.2-4.4c59.2-0.3,118.5-0.2,177.7-0.2C1191.4,18,1191.9,18.7,1192.5,19.5z"/>
			<path class="st6" d="M1046.4,276.7c0,10.3,0.1,20.8-0.1,31.2c0,1.1-1.5,2.1-2.3,3.2c-1-1.1-2.9-2.2-2.9-3.3
				c-0.3-6.5-0.1-13-0.1-19.4c-0.7-0.1-1.5-0.2-2.2-0.4c-2.3,6-4.3,12.1-6.9,18c-0.9,2-3,3.5-4.5,5.2c-1.4-1.6-3.2-3-4-4.9
				c-2.4-5.9-4.4-11.9-8.3-17.9c-0.3,3-0.6,5.9-0.7,8.9c-0.1,3.3,0.2,6.7-0.1,10c-0.1,1.4-1.6,2.6-2.5,3.9c-1-1.2-2.8-2.3-2.8-3.5
				c-0.2-10.4-0.1-20.9-0.1-31c6.3-2.4,9.3-0.4,11,5.1c2,6.7,4.6,13.2,7,19.8c0.7,0,1.4-0.1,2.1-0.1c2.3-6.6,5.1-13.1,6.8-19.9
				C1037.2,275.4,1040.5,274.5,1046.4,276.7z"/>
			<path class="st6" d="M986.6,281.4c-4.7-0.9-8.3-1.6-11.8-2.3c0.1-0.8,0.2-1.6,0.3-2.5c9.4,0,18.9,0,28.3,0
				c0.2,0.8,0.4,1.6,0.6,2.4c-3.4,0.7-6.8,1.4-11.3,2.4c0,7.7,0.2,15.7-0.1,23.8c-0.1,2-1.8,3.9-2.8,5.9c-1-1.9-2.9-3.8-2.9-5.7
				C986.4,297.3,986.6,289.2,986.6,281.4z"/>
		</g>
	</g>
	<g>
		<circle class="st7" cx="1205.2" cy="207.4" r="118.1"/>
		<g>
			<path class="st8" d="M1316.8,168.7c-16-46.2-59.9-79.4-111.6-79.4c-51.6,0-95.5,33.2-111.6,79.4H1316.8z"/>
			<path class="st8" d="M1094,247.2c16.3,45.6,59.9,78.3,111.2,78.3c51.3,0,94.9-32.7,111.2-78.3H1094z"/>
		</g>
		<circle class="st9" cx="1205.2" cy="208.7" r="28.8"/>
	</g>
</g>
</svg>
